<svg id="Capa_1" enable-background="new 0 0 497.025 497.025" height="512" viewBox="0 0 497.025 497.025" width="512" xmlns="http://www.w3.org/2000/svg"><g><path d="m495.97 326.662-31.763-180.139c-5.912-33.53-35.228-57.04-68.185-56.729l-.008-.027h-76l-73.351 10-69.649-10h-78l-.01.031c-32.136.637-60.391 23.875-66.184 56.725l-31.763 180.139c-6.585 37.344 18.351 72.956 55.695 79.54 37.344 6.585 72.956-18.351 79.54-55.695l4.622-26.214c1.685-9.558 9.99-16.527 19.696-16.527h175.806c9.706 0 18.011 6.969 19.696 16.527l4.622 26.214c6.585 37.344 42.196 62.28 79.54 55.695 37.345-6.584 62.281-42.195 55.696-79.54z" fill="#3c6a73"/><path d="m200.863 307.762h-40.25c-9.71 0-18.01 6.97-19.7 16.53l-4.62 26.22c-.74 4.19-1.85 8.23-3.28 12.08-21.94-6.48-38-26.81-38-50.83 0-29.22 23.78-53 53-53 27.87 0 50.8 21.64 52.85 49z" fill="#606060"/><path d="m99.013 89.762h15l-.01.04c-32.14.63-60.39 23.87-66.18 56.72l-31.77 180.14c-6.58 37.34 18.35 72.96 55.7 79.54 1.5.27 3.01.48 4.51.65-2.47.27-4.97.41-7.5.41-3.96 0-7.98-.35-12.01-1.06-37.35-6.58-62.28-42.2-55.7-79.54l31.77-180.14c5.79-32.85 34.04-56.09 66.18-56.72z" fill="#2f535a"/><path d="m485.843 376.132c-10.02 15.33-26.11 26.64-45.57 30.07-33.24 5.87-65.1-13.27-76.34-43.89-.01.01-.01.01-.02.01-1.38-3.85-2.47-7.78-3.18-11.81l-4.62-26.22c-1.69-9.56-9.99-16.53-19.7-16.53h-135.55c-.64-8.48-3.27-16.41-7.44-23.31 1.48 2.08 3.91 3.31 6.48 3.31h96.22c2.74 0 5.32-1.4 6.76-3.74 9.38-15.2 26.22-25.35 45.37-25.26 28.1.13 51.48 22.57 52.71 50.64.638 14.55-4.631 27.886-13.603 37.819-.556.616-.702 1.508-.329 2.249 13.276 26.377 42.668 42.128 73.242 36.732 9.41-1.66 18.04-5.16 25.57-10.07z" fill="#2f535a"/><circle cx="348.013" cy="311.767" fill="#b4d2d7" r="40"/><path d="m384.473 328.232c-6.27 13.88-20.24 23.53-36.46 23.53-22.09 0-40-17.9-40-40 0-16.22 9.66-30.19 23.54-36.46-2.28 5.02-3.54 10.59-3.54 16.46 0 22.1 17.91 40 40 40 5.86 0 11.44-1.26 16.46-3.53z" fill="#9bb9c3"/><path d="m145.555 178.267h-18.041c-1.657 0-3-1.343-3-3v-19.041c0-9.809-8.027-18.139-17.834-17.956-9.511.178-17.166 7.944-17.166 17.497v19.5c0 1.657-1.343 3-3 3h-18.042c-9.809 0-18.139 8.027-17.956 17.834.178 9.511 7.944 17.166 17.497 17.166h18.5c1.657 0 3 1.343 3 3v19.041c0 9.809 8.027 18.139 17.834 17.956 9.511-.178 17.166-7.944 17.166-17.497v-19.5c0-1.657 1.343-3 3-3h18.5c9.553 0 17.319-7.655 17.497-17.166.184-9.807-8.146-17.834-17.955-17.834z" fill="#b4d2d7"/><path d="m108.753 138.372c-3.82 3.21-6.24 8.02-6.24 13.39v23.5c0 1.66-1.34 3-3 3h-13c1.66 0 3-1.34 3-3v-19.5c0-9.55 7.65-17.31 17.17-17.49.7-.01 1.39.02 2.07.1z" fill="#9bb9c3"/><path d="m102.513 210.262v42.42c-7.49-1.99-13-8.8-13-16.92v-19.5c0-1.657-1.343-3-3-3h-18.5c-8.11 0-14.93-5.51-16.91-13h41.41c5.523 0 10 4.478 10 10z" fill="#9bb9c3"/><g><path d="m391.513 263.767c-12.406 0-22.5-10.094-22.5-22.5s10.094-22.5 22.5-22.5 22.5 10.094 22.5 22.5-10.093 22.5-22.5 22.5z" fill="#b3e59f"/></g><g><path d="m409.513 246.762c-12.41 0-22.5-10.09-22.5-22.5 0-1.77.21-3.49.6-5.15-10.56 1.84-18.6 11.08-18.6 22.15 0 12.41 10.09 22.5 22.5 22.5 10.64 0 19.57-7.41 21.9-17.35-1.27.23-2.57.35-3.9.35z" fill="#95d6a4"/></g><g><path d="m391.513 172.767c-12.406 0-22.5-10.094-22.5-22.5s10.094-22.5 22.5-22.5 22.5 10.094 22.5 22.5-10.093 22.5-22.5 22.5z" fill="#ffd064"/></g><g><path d="m351.513 217.767c-12.406 0-22.5-10.094-22.5-22.5s10.094-22.5 22.5-22.5 22.5 10.094 22.5 22.5-10.093 22.5-22.5 22.5z" fill="#6cbff8"/></g><g><path d="m431.513 217.767c-12.406 0-22.5-10.094-22.5-22.5s10.094-22.5 22.5-22.5 22.5 10.094 22.5 22.5-10.093 22.5-22.5 22.5z" fill="#938dc8"/></g><g><path d="m413.413 155.412c-2.33 9.94-11.26 17.35-21.9 17.35h-.18c-10.43-.08-19.2-7.3-21.64-17-.44-1.76-.68-3.6-.68-5.5 0-11.07 8.04-20.31 18.6-22.15-.39 1.66-.6 3.38-.6 5.15 0 12.41 10.09 22.5 22.5 22.5 1.33 0 2.63-.12 3.9-.35z" fill="#ffc250"/></g><g><path d="m369.513 200.762c-12.41 0-22.5-10.09-22.5-22.5 0-1.77.21-3.49.6-5.15-10.56 1.84-18.6 11.08-18.6 22.15 0 12.41 10.09 22.5 22.5 22.5 10.64 0 19.57-7.41 21.9-17.35-1.27.23-2.57.35-3.9.35z" fill="#5fa7ee"/></g><g><path d="m453.413 200.412c-2.33 9.94-11.26 17.35-21.9 17.35-.15 0-.31 0-.46-.01-9.95-.2-18.33-6.88-21.08-15.98-.63-2.06-.96-4.25-.96-6.51 0-11.07 8.04-20.31 18.6-22.15-.39 1.66-.6 3.38-.6 5.15 0 12.41 10.09 22.5 22.5 22.5 1.33 0 2.63-.12 3.9-.35z" fill="#7f78bd"/></g><path d="m177.013 89.767h143v71c0 5.523-4.477 10-10 10h-123c-5.523 0-10-4.477-10-10z" fill="#b4d2d7"/><path d="m207.013 170.762h-20c-5.52 0-10-4.47-10-10v-71h20v71c0 5.53 4.48 10 10 10z" fill="#9bb9c3"/><g><path d="m294.013 232.267h-90c-4.143 0-7.5-3.357-7.5-7.5s3.357-7.5 7.5-7.5h90c4.143 0 7.5 3.357 7.5 7.5s-3.357 7.5-7.5 7.5z" fill="#2f535a"/></g><g><path d="m294.013 262.267h-90c-4.143 0-7.5-3.357-7.5-7.5s3.357-7.5 7.5-7.5h90c4.143 0 7.5 3.357 7.5 7.5s-3.357 7.5-7.5 7.5z" fill="#2f535a"/></g><path d="m200.863 307.762h-40.25c-9.71 0-18.01 6.97-19.7 16.53l-4.62 26.22c-.74 4.19-1.85 8.23-3.28 12.08-21.94-6.48-38-26.81-38-50.83 0-29.22 23.78-53 53-53 27.87 0 50.8 21.64 52.85 49z" fill="#2f535a"/><circle cx="148.013" cy="311.767" fill="#b4d2d7" r="40"/><path d="m184.473 328.232c-6.27 13.88-20.24 23.53-36.46 23.53-22.09 0-40-17.9-40-40 0-16.22 9.66-30.19 23.54-36.46-2.28 5.02-3.54 10.59-3.54 16.46 0 22.1 17.91 40 40 40 5.86 0 11.44-1.26 16.46-3.53z" fill="#9bb9c3"/></g></svg>