<?xml version="1.0" encoding="iso-8859-1"?>
<!-- Generator: Adobe Illustrator 19.0.0, SVG Export Plug-In . SVG Version: 6.00 Build 0)  -->
<svg xmlns="http://www.w3.org/2000/svg" xmlns:xlink="http://www.w3.org/1999/xlink" version="1.1" id="Layer_1" x="0px" y="0px" viewBox="0 0 489.954 489.954" style="enable-background:new 0 0 489.954 489.954;" xml:space="preserve" width="512" height="512">
<g>
	<path style="fill:#70E6D1;" d="M221.06,251.797h237.116c17.551,0,31.778-14.228,31.778-31.778V32.685   c0-17.551-14.228-31.778-31.778-31.778H221.06c-17.551,0-31.778,14.228-31.778,31.778v187.334   C189.281,237.57,203.509,251.797,221.06,251.797z"/>
	<g>
		<path style="fill:#FFFFFF;" d="M452.257,226.396c-4.142,0-7.5-3.358-7.5-7.5V48.833c0-4.142,3.358-7.5,7.5-7.5s7.5,3.358,7.5,7.5    v170.063C459.757,223.038,456.399,226.396,452.257,226.396z"/>
		<path style="fill:#FFFFFF;" d="M383.189,226.396c-4.142,0-7.5-3.358-7.5-7.5v-67.439c0-4.142,3.358-7.5,7.5-7.5s7.5,3.358,7.5,7.5    v67.439C390.689,223.038,387.331,226.396,383.189,226.396z"/>
		<path style="fill:#FFFFFF;" d="M417.722,226.396c-4.142,0-7.5-3.358-7.5-7.5V96.724c0-4.142,3.358-7.5,7.5-7.5s7.5,3.358,7.5,7.5    v122.172C425.222,223.038,421.864,226.396,417.722,226.396z"/>
		<path style="fill:#FFFFFF;" d="M314.121,226.396c-4.142,0-7.5-3.358-7.5-7.5V28.831c0-4.142,3.358-7.5,7.5-7.5s7.5,3.358,7.5,7.5    v190.064C321.621,223.038,318.263,226.396,314.121,226.396z"/>
		<path style="fill:#FFFFFF;" d="M348.655,226.396c-4.142,0-7.5-3.358-7.5-7.5V66.425c0-4.142,3.358-7.5,7.5-7.5s7.5,3.358,7.5,7.5    v152.47C356.155,223.038,352.797,226.396,348.655,226.396z"/>
	</g>
	<path style="fill:#3E5268;" d="M304.21,194.046l9.812-15.747c2.793-4.483,4.436-9.631,4.456-14.913c0-0.039,0-0.079,0-0.118   c0-6.62-2.07-12.77-5.59-17.83c6.49-5.73,10.59-14.1,10.59-23.44c0-13.47-8.52-24.95-20.46-29.35c0.65-2.51,1-5.14,1-7.85   c0-17.28-14.01-31.28-31.28-31.28c-2.42,0-4.77,0.28-7.04,0.81c-0.13-17.16-14.08-31.03-31.27-31.03c-5.21,0-10.13,1.29-14.45,3.54   c-2.79-14.41-15.47-25.29-30.7-25.29c-9.37,0-17.77,4.12-23.5,10.64c-5.73-6.52-14.13-10.64-23.5-10.64   c-15.23,0-27.91,10.88-30.7,25.29c-4.32-2.25-9.24-3.54-14.45-3.54c-17.19,0-31.14,13.87-31.27,31.03   c-2.27-0.53-4.62-0.81-7.04-0.81c-17.27,0-31.28,14-31.28,31.28c0,2.71,0.35,5.34,1,7.85c-11.94,4.4-20.46,15.88-20.46,29.35   c0,9.34,4.1,17.71,10.59,23.44c-3.52,5.06-5.59,11.21-5.59,17.83c0,0.039,0,0.079,0,0.118c0.02,5.282,1.662,10.43,4.456,14.913   l9.812,15.747"/>
	<path style="fill:#27394C;" d="M166.318,26.837c-4.32-2.25-9.24-3.54-14.45-3.54c-17.19,0-31.14,13.87-31.27,31.03   c-2.27-0.53-4.62-0.81-7.04-0.81c-17.27,0-31.28,14-31.28,31.28c0,2.71,0.35,5.34,1,7.85c-11.94,4.4-20.46,15.88-20.46,29.35   c0,9.34,4.1,17.71,10.59,23.44c-3.52,5.06-5.59,11.21-5.59,17.83v0.12c0.02,5.28,1.66,10.43,4.45,14.91l9.82,15.75h-54.74   l-9.81-15.75c-2.79-4.48-4.44-9.63-4.46-14.91v-0.12c0-6.62,2.07-12.77,5.59-17.83c-6.49-5.73-10.59-14.1-10.59-23.44   c0-13.47,8.52-24.95,20.46-29.35c-0.65-2.51-1-5.14-1-7.85c0-17.28,14.01-31.28,31.28-31.28c2.42,0,4.77,0.28,7.04,0.81   c0.13-17.16,14.08-31.03,31.27-31.03c5.21,0,10.13,1.29,14.45,3.54c2.79-14.41,15.47-25.29,30.7-25.29c7.99,0,15.28,3,20.8,7.94   C162.668,15.927,163.648,22.237,166.318,26.837z"/>
	<path style="fill:#C99061;" d="M328.431,231.217c0,20.455-15.753,37.217-35.783,38.82c-1.045,0.089-2.107,0.133-3.17,0.133   c-2.727,0-5.384-0.275-7.952-0.815H46.905c-2.568,0.54-5.225,0.815-7.952,0.815h-0.027C17.418,270.153,0,252.726,0,231.217   c0-20.278,15.496-36.934,35.296-38.767c1.204-0.124,2.426-0.177,3.657-0.177c1.638,0,3.241,0.097,4.826,0.292h240.873   c1.585-0.195,3.188-0.292,4.826-0.292c2.311,0,4.578,0.204,6.774,0.593C314.537,196.063,328.431,212.02,328.431,231.217z"/>
	<path style="fill:#A86340;" d="M296.252,192.866v49.34c0,9.581-1.248,18.905-3.604,27.831c-1.045,0.089-2.107,0.133-3.17,0.133   c-2.727,0-5.384-0.275-7.952-0.815H46.905c-2.568,0.54-5.225,0.815-7.952,0.815h-0.027c-2.373-8.97-3.63-18.33-3.63-27.964V192.45   c1.204-0.124,2.426-0.177,3.657-0.177c1.638,0,3.241,0.097,4.826,0.292h240.873c1.585-0.195,3.188-0.292,4.826-0.292   C291.789,192.273,294.056,192.477,296.252,192.866z"/>
	<path style="fill:#A86340;" d="M307.195,239.891c-2.896,0-5.654-1.687-6.882-4.511c-3.133-7.206-12.598-4.903-13.666-4.616   c-3.983,1.131-8.106-1.189-9.238-5.174c-1.131-3.985,1.208-8.139,5.193-9.27c7.937-2.254,24.728-2.419,31.467,13.079   c1.652,3.799-0.089,8.217-3.888,9.868C309.207,239.691,308.193,239.891,307.195,239.891z"/>
	<path style="fill:#A86340;" d="M25.239,239.89c-0.999,0-2.015-0.201-2.989-0.625c-3.798-1.653-5.537-6.072-3.884-9.87   c3.811-8.755,13.718-16.875,30.088-13.412c4.052,0.857,6.643,4.837,5.785,8.89c-0.856,4.052-4.835,6.642-8.89,5.786   c-3.822-0.809-10.622-1.27-13.23,4.723C30.891,238.204,28.134,239.89,25.239,239.89z"/>
	<path style="fill:#4CBFD4;" d="M284.65,438.654v50.394H46.903v-50.394c0-65.651,53.218-118.878,118.869-118.878   c9.289,0,18.33,1.071,27.008,3.082c21.987,5.109,41.627,16.32,57.053,31.736C271.341,376.111,284.65,405.828,284.65,438.654z"/>
	<path style="fill:#96EFFF;" d="M284.65,438.654v50.394H100.919v-50.394c0-56.362,39.227-103.568,91.861-115.796   c21.987,5.109,41.627,16.32,57.053,31.736C271.341,376.111,284.65,405.828,284.65,438.654z"/>
	<rect x="158.948" y="374.839" style="fill:#4CBFD4;" width="13.653" height="114.208"/>
	<polyline style="fill:#3191AA;" points="223.623,360.309 197.155,414.019 165.773,379.858 165.775,379.858 134.394,414.019    107.926,360.309  "/>
	<path style="fill:#A86340;" d="M284.648,176.639v79.33c0,57.93-41.44,106.18-96.3,116.72c-7.3,1.41-14.85,2.15-22.58,2.15   c-65.65,0-118.86-53.22-118.86-118.87v-79.32c5.71,6.15,13.86,9.99,22.91,9.99c8.7,0,16.57-3.55,22.24-9.29   c5.58-5.65,9.03-13.41,9.03-21.98c0-1.79-0.15-3.54-0.44-5.25c0.13,0.01,0.26,0.01,0.39,0.01c10.69,0,20.12-5.36,25.77-13.55   c4.28,2.2,9.12,3.45,14.27,3.45c10.04,0,18.98-4.74,24.7-12.1c5.72,7.36,14.65,12.1,24.7,12.1c5.14,0,9.99-1.25,14.27-3.45   c5.64,8.19,15.08,13.55,25.77,13.55c0.13,0,0.26,0,0.39-0.01c-0.29,1.71-0.45,3.46-0.45,5.25c0,17.27,14.01,31.27,31.28,31.27   C270.788,186.639,278.948,182.789,284.648,176.639z"/>
	<path style="fill:#C99061;" d="M284.648,176.639v79.33c0,57.93-41.44,106.18-96.3,116.72c-54.85-10.54-96.29-58.79-96.29-116.72   v-78.62c5.58-5.65,9.03-13.41,9.03-21.98c0-1.79-0.15-3.54-0.44-5.25c0.13,0.01,0.26,0.01,0.39,0.01   c10.69,0,20.12-5.36,25.77-13.55c4.28,2.2,9.12,3.45,14.27,3.45c10.04,0,18.98-4.74,24.7-12.1c5.72,7.36,14.65,12.1,24.7,12.1   c5.14,0,9.99-1.25,14.27-3.45c5.64,8.19,15.08,13.55,25.77,13.55c0.13,0,0.26,0,0.39-0.01c-0.29,1.71-0.45,3.46-0.45,5.25   c0,17.27,14.01,31.27,31.28,31.27C270.788,186.639,278.948,182.789,284.648,176.639z"/>
	<path style="fill:#965D36;" d="M165.776,301.941c-14.365,0-27.869-5.594-38.026-15.751c-2.929-2.929-2.929-7.678,0-10.607   c2.929-2.929,7.678-2.928,10.606,0c7.324,7.324,17.062,11.357,27.419,11.357c10.357,0,20.095-4.033,27.419-11.357   c2.929-2.929,7.678-2.929,10.606,0c2.929,2.929,2.929,7.678,0,10.607C193.645,296.347,180.14,301.941,165.776,301.941z"/>
	<g>
		<g>
			<path style="fill:#172635;" d="M113.99,247.438c-4.142,0-7.5-3.358-7.5-7.5v-29.22c0-4.142,3.358-7.5,7.5-7.5s7.5,3.358,7.5,7.5     v29.22C121.49,244.08,118.132,247.438,113.99,247.438z"/>
			<path style="fill:#172635;" d="M217.564,247.438c-4.142,0-7.5-3.358-7.5-7.5v-29.22c0-4.142,3.358-7.5,7.5-7.5s7.5,3.358,7.5,7.5     v29.22C225.064,244.08,221.706,247.438,217.564,247.438z"/>
		</g>
	</g>
	<path style="fill:#4CBFD4;" d="M252.447,451.078h-45.611c-4.142,0-7.5-3.358-7.5-7.5s3.358-7.5,7.5-7.5h45.611   c4.142,0,7.5,3.358,7.5,7.5S256.59,451.078,252.447,451.078z"/>
	<g>
		<g>
			<polygon style="fill:#96EFFF;" points="374.861,452.597 338.955,488.743 249.374,488.743 330.059,408.757 356.942,434.679    "/>
			<path style="fill:#C99061;" d="M330.059,408.764l21.98,21.5l22.82,22.33l30.27-6.45c4.36-0.93,8.1-3.32,10.75-6.6     c0.29-0.36,0.58-0.74,0.84-1.13c2.13-3.07,3.36-6.8,3.36-10.76c0-10.43-8.46-18.89-18.9-18.89H330.059z"/>
			<path style="fill:#A86340;" d="M352.039,430.264l22.82,22.33l30.27-6.45c4.36-0.93,8.1-3.32,10.75-6.6     c0.29-0.36,0.58-0.74,0.84-1.13c-3.4-4.93-9.09-8.15-15.54-8.15H352.039z"/>
			<polygon style="fill:#4CBFD4;" points="374.861,452.597 338.955,488.743 303.118,488.743 356.942,434.679    "/>
		</g>
	</g>
	<path style="fill:#FFE563;" d="M405.211,348.682c0-16.203-10.543-22.502-22.058-27.026V299.35c3.365,0.626,5.692,1.791,7.626,2.773   c1.71,0.869,3.188,1.619,4.792,1.619c5.111,0,7.322-6.213,7.322-9.382c0-3.505-2.836-6.361-8.201-8.259   c-4.018-1.421-8.467-2.009-11.539-2.254v-8.446c0-3.59-2.91-6.5-6.5-6.5s-6.5,2.91-6.5,6.5v8.761   c-8.209,1.35-23.997,6.417-23.997,25.387c0,16.275,12.479,21.53,23.997,25.855v24.885c-5.576-1.015-9.192-3.789-12.124-6.073   c-2.295-1.788-4.277-3.332-6.481-3.332c-4.398,0-7.708,5.77-7.708,9.51c0,7.215,11.157,15.529,26.314,16.396v7.098   c0,3.59,2.91,6.5,6.5,6.5s6.5-2.91,6.5-6.5v-7.964C397.207,372.715,405.211,362.92,405.211,348.682z M383.154,341.067   c3.07,1.988,5.353,4.748,5.353,9.288c0,4.705-2.444,7.315-5.353,8.76V341.067z M370.154,316.705   c-4.657-2.138-7.293-4.533-7.293-8.829c0-3.825,2.568-6.588,7.293-7.947V316.705z"/>
</g>















</svg>
